<svg width="24" height="24" viewBox="0 0 24 24" fill="none" xmlns="http://www.w3.org/2000/svg">
<path d="M21.0037 2.61084L13.1998 8.43117L14.6429 4.99725L21.0037 2.61084Z" fill="#E2761B"/>
<path d="M2.98802 2.61084L10.7292 8.4863L9.35665 4.99725L2.98802 2.61084ZM18.1959 16.1024L16.1174 19.3L20.5645 20.5286L21.8429 16.1732L18.1959 16.1024ZM2.16449 16.1732L3.43508 20.5286L7.88214 19.3L5.80371 16.1024L2.16449 16.1732Z" fill="#E4761B"/>
<path d="M7.63112 10.6993L6.39191 12.5817L10.8076 12.7786L10.6507 8.01363L7.63112 10.6993ZM16.3605 10.6993L13.3017 7.9585L13.1997 12.7786L17.6076 12.5817L16.3605 10.6993ZM7.8821 19.2999L10.5331 18.0003L8.24289 16.2046L7.8821 19.2999ZM13.4586 18.0003L16.1174 19.2999L15.7488 16.2046L13.4586 18.0003Z" fill="#E4761B"/>
<path d="M16.1174 19.3L13.4585 18.0005L13.6703 19.7411L13.6468 20.4735L16.1174 19.3ZM7.88208 19.3L10.3527 20.4735L10.337 19.7411L10.5331 18.0005L7.88208 19.3Z" fill="#D7C1B3"/>
<path d="M10.3919 15.055L8.18018 14.4013L9.74096 13.6846L10.3919 15.055ZM13.5998 15.055L14.2508 13.6846L15.8194 14.4013L13.5998 15.055Z" fill="#233447"/>
<path d="M7.88208 19.3002L8.25855 16.1026L5.80365 16.1735L7.88208 19.3002ZM15.7409 16.1026L16.1174 19.3002L18.1958 16.1735L15.7409 16.1026ZM17.6076 12.582L13.1997 12.7789L13.6076 15.0551L14.2586 13.6847L15.8272 14.4014L17.6076 12.582ZM8.18012 14.4014L9.74875 13.6847L10.3919 15.0551L10.8076 12.7789L6.39189 12.582L8.18012 14.4014Z" fill="#CD6116"/>
<path d="M6.39191 12.582L8.24289 16.205L8.18014 14.4014L6.39191 12.582ZM15.8272 14.4014L15.7488 16.205L17.6076 12.582L15.8272 14.4014ZM10.8076 12.7789L10.3919 15.0551L10.9096 17.7408L11.0272 14.2045L10.8076 12.7789ZM13.1997 12.7789L12.988 14.1966L13.0821 17.7408L13.6076 15.0551L13.1997 12.7789Z" fill="#E4751F"/>
<path d="M13.6076 15.0551L13.0821 17.7408L13.4586 18.0007L15.7488 16.205L15.8272 14.4014L13.6076 15.0551ZM8.18018 14.4014L8.24292 16.205L10.5331 18.0007L10.9096 17.7408L10.3919 15.0551L8.18018 14.4014Z" fill="#F6851B"/>
<path d="M13.6468 20.4733L13.6703 19.7409L13.4742 19.5676H10.5174L10.337 19.7409L10.3527 20.4733L7.88208 19.2998L8.74483 20.0086L10.4938 21.2294H13.4978L15.2546 20.0086L16.1174 19.2998L13.6468 20.4733Z" fill="#C0AD9E"/>
<path d="M13.4586 18.0006L13.0821 17.7407H10.9096L10.5331 18.0006L10.337 19.7412L10.5174 19.5679H13.4743L13.6704 19.7412L13.4586 18.0006Z" fill="#161616"/>
<path d="M21.3331 8.80922L21.9998 5.59583L21.0037 2.61084L13.4586 8.23427L16.3605 10.6994L20.4625 11.9045L21.3723 10.8412L20.9801 10.5577L21.6076 9.98273L21.1213 9.60469L21.7488 9.12425L21.3331 8.80922ZM1.99976 5.59583L2.66642 8.80922L2.24289 9.12425L2.87034 9.60469L2.39191 9.98273L3.01936 10.5577L2.62721 10.8412L3.52917 11.9045L7.63113 10.6994L10.5331 8.23427L2.98799 2.61084L1.99976 5.59583Z" fill="#763D16"/>
<path d="M20.4625 11.9043L16.3606 10.6993L17.6076 12.5816L15.7488 16.2046L18.1959 16.173H21.8429L20.4625 11.9043ZM7.63116 10.6993L3.5292 11.9043L2.16449 16.173H5.80371L8.24292 16.2046L6.39194 12.5816L7.63116 10.6993ZM13.1998 12.7785L13.4586 8.23409L14.6508 4.99707H9.35665L10.5331 8.23409L10.8076 12.7785L10.9017 14.2119L10.9096 17.7404H13.0821L13.0978 14.2119L13.1998 12.7785Z" fill="#F6851B"/>
</svg>
