<svg width="14" height="14" viewBox="0 0 14 14" fill="none" xmlns="http://www.w3.org/2000/svg">
<path d="M4.98333 6.08325C5.59084 6.08325 6.08333 5.59077 6.08333 4.98325V1.49992C6.08333 0.993658 6.49373 0.583252 7 0.583252V0.583252C7.50626 0.583252 7.91666 0.993658 7.91666 1.49992V4.98325C7.91666 5.59077 8.40915 6.08325 9.01666 6.08325H12.5C13.0063 6.08325 13.4167 6.49366 13.4167 6.99992V6.99992C13.4167 7.50618 13.0063 7.91659 12.5 7.91659H9.01666C8.40915 7.91659 7.91666 8.40907 7.91666 9.01659V12.4999C7.91666 13.0062 7.50626 13.4166 7 13.4166V13.4166C6.49373 13.4166 6.08333 13.0062 6.08333 12.4999V9.01659C6.08333 8.40907 5.59084 7.91659 4.98333 7.91659H1.49999C0.993734 7.91659 0.583328 7.50618 0.583328 6.99992V6.99992C0.583328 6.49366 0.993734 6.08325 1.49999 6.08325H4.98333Z" fill="#492B04"/>
</svg>
