<svg width="250" height="250" viewBox="0 0 250 250" fill="none" xmlns="http://www.w3.org/2000/svg">
<rect width="250" height="250" rx="125" fill="#07B53B"/>
<path d="M71.3928 165.904C73.3642 176.168 85.8997 185.812 97.2703 185.812H157.216L153.278 165.454H108.773C103.469 165.454 97.6208 160.957 96.6981 156.168L87.8185 110.084L78.9389 64C64.8698 64 54.2819 76.815 56.9356 90.6316L71.3928 165.904Z" fill="white"/>
<path d="M198.141 185.531L175.435 77.1049C173.836 69.4691 167.103 64 159.302 64H93.1298L97.4406 84.3105H145.722C149.361 84.3105 152.502 86.8596 153.25 90.4202L158.1 113.491L162.328 133.802C160.155 124.084 152.819 116.309 143.361 113.491H104.736L108.964 133.802H162.328L173.105 185.531H198.141Z" fill="white"/>
</svg>
